<?xml version="1.0" encoding="UTF-8"?>
<!-- Generator: Adobe Illustrator 15.0.2, SVG Export Plug-In . SVG Version: 6.00 Build 0)  -->
<!DOCTYPE svg PUBLIC "-//W3C//DTD SVG 1.1//EN" "http://www.w3.org/Graphics/SVG/1.1/DTD/svg11.dtd">
<svg width="507px" height="507px" viewBox="467 387 507 507" version="1.1" xmlns="http://www.w3.org/2000/svg" xmlns:xlink="http://www.w3.org/1999/xlink">
    <!-- Generator: Sketch 3.7.1 (28215) - http://www.bohemiancoding.com/sketch -->
    <desc>Created with Sketch.</desc>
    <defs></defs>
    <g id="Logo" stroke="none" stroke-width="1" fill="none" fill-rule="evenodd" transform="translate(475.000000, 395.000000)">
        <path d="M399.413853,133.742457 C409.638572,133.742457 437.462014,196.209971 419.863291,180.62579 C402.264568,165.041609 393.415236,164.817153 378.964415,180.62579 C364.513594,196.434427 389.189134,133.742457 399.413853,133.742457 Z" id="Triangle-1" fill="#FFFFFF" transform="translate(400.050724, 158.462090) rotate(-210.000000) translate(-400.050724, -158.462090) "></path>
        <path d="M245.5,425.033588 C344.653663,425.033588 425.033588,344.653663 425.033588,245.5 C425.033588,146.346337 344.653663,65.9664122 245.5,65.9664122 C146.346337,65.9664122 65.9664122,146.346337 65.9664122,245.5" id="Oval-3" stroke="#FFFFFF" stroke-width="11.25" transform="translate(245.500000, 245.500000) rotate(-120.000000) translate(-245.500000, -245.500000) "></path>
        <path d="M245.5,425.033588 C344.653663,425.033588 425.033588,344.653663 425.033588,245.5 C425.033588,146.346337 344.653663,65.9664122 245.5,65.9664122 C146.346337,65.9664122 65.9664122,146.346337 65.9664122,245.5" id="Oval-3" stroke="#FFFFFF" stroke-width="11.25" transform="translate(245.500000, 245.500000) rotate(-187.000000) translate(-245.500000, -245.500000) "></path>
        <path d="M326.651407,275.610687 C339.937481,258.119623 347.822901,236.302055 347.822901,212.642748 C347.822901,155.096364 301.172339,108.445802 243.625954,108.445802 C186.07957,108.445802 139.429008,155.096364 139.429008,212.642748 C139.429008,239.037191 149.243002,263.139453 165.421007,281.49955 L244.000763,390.30229 L326.833588,275.610687 L326.651407,275.610687 Z M243.625954,271.112977 C276.332173,271.112977 302.845802,244.599348 302.845802,211.89313 C302.845802,179.186911 276.332173,152.673282 243.625954,152.673282 C210.919736,152.673282 184.406107,179.186911 184.406107,211.89313 C184.406107,244.599348 210.919736,271.112977 243.625954,271.112977 Z" id="Combined-Shape" fill="#FFFFFF"></path>
    </g>
</svg>



